/videos/fef875f5-5f95-9c05-1d91-20bc392832cb/hls1/main/0.ts

{"Protocol":0,"Id":"fef875f55f959c051d9120bc392832cb","Path":"/data/movies/To Every You I\u0027ve Loved Before (2022)/To Every You I\u0027ve Loved Before (2022) WEBDL-1080p.mkv","EncoderPath":null,"EncoderProtocol":null,"Type":0,"Container":"mkv,webm","Size":6227556352,"Name":"To Every You I\u0027ve Loved Before (2022) WEBDL-1080p","IsRemote":false,"ETag":"c0ebb7310c20b7b3c825777dfba16b24","RunTimeTicks":61372178432,"ReadAtNativeFramerate":false,"IgnoreDts":false,"IgnoreIndex":false,"GenPtsInput":false,"SupportsTranscoding":true,"SupportsDirectStream":true,"SupportsDirectPlay":true,"IsInfiniteStream":false,"RequiresOpening":false,"OpenToken":null,"RequiresClosing":false,"LiveStreamId":null,"BufferMs":null,"RequiresLooping":false,"SupportsProbing":true,"VideoType":0,"IsoType":null,"Video3DFormat":null,"MediaStreams":[{"Codec":"webvtt","CodecTag":null,"Language":"eng","ColorRange":null,"ColorSpace":null,"ColorTransfer":null,"ColorPrimaries":null,"DvVersionMajor":null,"DvVersionMinor":null,"DvProfile":null,"DvLevel":null,"RpuPresentFlag":null,"ElPresentFlag":null,"BlPresentFlag":null,"DvBlSignalCompatibilityId":null,"Comment":null,"TimeBase":"1/1000","CodecTimeBase":null,"Title":null,"VideoRange":null,"VideoRangeType":null,"VideoDoViTitle":null,"LocalizedUndefined":"Undefined","LocalizedDefault":"Default","LocalizedForced":"Forced","LocalizedExternal":"External","DisplayTitle":"English - WEBVTT - External","NalLengthSize":null,"IsInterlaced":false,"IsAVC":null,"ChannelLayout":null,"BitRate":null,"BitDepth":null,"RefFrames":null,"PacketLength":null,"Channels":null,"SampleRate":null,"IsDefault":false,"IsForced":false,"Height":null,"Width":null,"AverageFrameRate":null,"RealFrameRate":null,"Profile":null,"Type":2,"AspectRatio":null,"Index":0,"Score":null,"IsExternal":true,"DeliveryMethod":null,"DeliveryUrl":null,"IsExternalUrl":null,"IsTextSubtitleStream":true,"SupportsExternalStream":true,"Path":"/data/movies/To Every You I\u0027ve Loved Before (2022)/To Every You I\u0027ve Loved Before (2022) WEBDL-1080p.eng.vtt","PixelFormat":null,"Level":0,"IsAnamorphic":null},{"Codec":"h264","CodecTag":null,"Language":null,"ColorRange":null,"ColorSpace":null,"ColorTransfer":null,"ColorPrimaries":null,"DvVersionMajor":null,"DvVersionMinor":null,"DvProfile":null,"DvLevel":null,"RpuPresentFlag":null,"ElPresentFlag":null,"BlPresentFlag":null,"DvBlSignalCompatibilityId":null,"Comment":null,"TimeBase":"1/1000","CodecTimeBase":null,"Title":null,"VideoRange":"SDR","VideoRangeType":"SDR","VideoDoViTitle":null,"LocalizedUndefined":null,"LocalizedDefault":null,"LocalizedForced":null,"LocalizedExternal":null,"DisplayTitle":"1080p H264 SDR","NalLengthSize":"4","IsInterlaced":false,"IsAVC":true,"ChannelLayout":null,"BitRate":8117758,"BitDepth":8,"RefFrames":1,"PacketLength":null,"Channels":null,"SampleRate":null,"IsDefault":true,"IsForced":false,"Height":1080,"Width":1920,"AverageFrameRate":23.976025,"RealFrameRate":23.976025,"Profile":"High","Type":1,"AspectRatio":"16:9","Index":1,"Score":null,"IsExternal":false,"DeliveryMethod":null,"DeliveryUrl":null,"IsExternalUrl":null,"IsTextSubtitleStream":false,"SupportsExternalStream":false,"Path":null,"PixelFormat":"yuv420p","Level":40,"IsAnamorphic":null},{"Codec":"aac","CodecTag":null,"Language":"jpn","ColorRange":null,"ColorSpace":null,"ColorTransfer":null,"ColorPrimaries":null,"DvVersionMajor":null,"DvVersionMinor":null,"DvProfile":null,"DvLevel":null,"RpuPresentFlag":null,"ElPresentFlag":null,"BlPresentFlag":null,"DvBlSignalCompatibilityId":null,"Comment":null,"TimeBase":"1/1000","CodecTimeBase":null,"Title":null,"VideoRange":null,"VideoRangeType":null,"VideoDoViTitle":null,"LocalizedUndefined":null,"LocalizedDefault":null,"LocalizedForced":null,"LocalizedExternal":null,"DisplayTitle":"Japanese - AAC - Stereo - Default","NalLengthSize":null,"IsInterlaced":false,"IsAVC":null,"ChannelLayout":"stereo","BitRate":127999,"BitDepth":null,"RefFrames":null,"PacketLength":null,"Channels":2,"SampleRate":44100,"IsDefault":true,"IsForced":false,"Height":null,"Width":null,"AverageFrameRate":null,"RealFrameRate":null,"Profile":"LC","Type":0,"AspectRatio":null,"Index":2,"Score":null,"IsExternal":false,"DeliveryMethod":null,"DeliveryUrl":null,"IsExternalUrl":null,"IsTextSubtitleStream":false,"SupportsExternalStream":false,"Path":null,"PixelFormat":null,"Level":0,"IsAnamorphic":null},{"Codec":"ass","CodecTag":null,"Language":"fre","ColorRange":null,"ColorSpace":null,"ColorTransfer":null,"ColorPrimaries":null,"DvVersionMajor":null,"DvVersionMinor":null,"DvProfile":null,"DvLevel":null,"RpuPresentFlag":null,"ElPresentFlag":null,"BlPresentFlag":null,"DvBlSignalCompatibilityId":null,"Comment":null,"TimeBase":"1/1000","CodecTimeBase":null,"Title":null,"VideoRange":null,"VideoRangeType":null,"VideoDoViTitle":null,"LocalizedUndefined":"Undefined","LocalizedDefault":"Default","LocalizedForced":"Forced","LocalizedExternal":"External","DisplayTitle":"Fre - Default - ASS","NalLengthSize":null,"IsInterlaced":false,"IsAVC":null,"ChannelLayout":null,"BitRate":null,"BitDepth":null,"RefFrames":null,"PacketLength":null,"Channels":null,"SampleRate":null,"IsDefault":true,"IsForced":false,"Height":null,"Width":null,"AverageFrameRate":null,"RealFrameRate":null,"Profile":null,"Type":2,"AspectRatio":null,"Index":3,"Score":null,"IsExternal":false,"DeliveryMethod":null,"DeliveryUrl":null,"IsExternalUrl":null,"IsTextSubtitleStream":true,"SupportsExternalStream":true,"Path":null,"PixelFormat":null,"Level":0,"IsAnamorphic":null}],"MediaAttachments":[{"Codec":"ttf","CodecTag":"[0][0][0][0]","Comment":null,"Index":3,"FileName":"trebucbd.ttf","MimeType":"application/x-truetype-font","DeliveryUrl":null},{"Codec":"ttf","CodecTag":"[0][0][0][0]","Comment":null,"Index":4,"FileName":"trebucbi.ttf","MimeType":"application/x-truetype-font","DeliveryUrl":null},{"Codec":"ttf","CodecTag":"[0][0][0][0]","Comment":null,"Index":5,"FileName":"trebucit.ttf","MimeType":"application/x-truetype-font","DeliveryUrl":null},{"Codec":"ttf","CodecTag":"[0][0][0][0]","Comment":null,"Index":6,"FileName":"trebuc.ttf","MimeType":"application/x-truetype-font","DeliveryUrl":null},{"Codec":"ttf","CodecTag":"[0][0][0][0]","Comment":null,"Index":7,"FileName":"arialbi.ttf","MimeType":"application/x-truetype-font","DeliveryUrl":null},{"Codec":"ttf","CodecTag":"[0][0][0][0]","Comment":null,"Index":8,"FileName":"ariali.ttf","MimeType":"application/x-truetype-font","DeliveryUrl":null},{"Codec":"ttf","CodecTag":"[0][0][0][0]","Comment":null,"Index":9,"FileName":"arialbd.ttf","MimeType":"application/x-truetype-font","DeliveryUrl":null},{"Codec":"ttf","CodecTag":"[0][0][0][0]","Comment":null,"Index":10,"FileName":"arial.ttf","MimeType":"application/x-truetype-font","DeliveryUrl":null},{"Codec":"ttf","CodecTag":"[0][0][0][0]","Comment":null,"Index":11,"FileName":"comicbd.ttf","MimeType":"application/x-truetype-font","DeliveryUrl":null},{"Codec":"ttf","CodecTag":"[0][0][0][0]","Comment":null,"Index":12,"FileName":"comic.ttf","MimeType":"application/x-truetype-font","DeliveryUrl":null},{"Codec":"ttf","CodecTag":"[0][0][0][0]","Comment":null,"Index":13,"FileName":"timesi.ttf","MimeType":"application/x-truetype-font","DeliveryUrl":null},{"Codec":"ttf","CodecTag":"[0][0][0][0]","Comment":null,"Index":14,"FileName":"timesbd.ttf","MimeType":"application/x-truetype-font","DeliveryUrl":null},{"Codec":"ttf","CodecTag":"[0][0][0][0]","Comment":null,"Index":15,"FileName":"timesbi.ttf","MimeType":"application/x-truetype-font","DeliveryUrl":null},{"Codec":"ttf","CodecTag":"[0][0][0][0]","Comment":null,"Index":16,"FileName":"times.ttf","MimeType":"application/x-truetype-font","DeliveryUrl":null},{"Codec":"ttf","CodecTag":"[0][0][0][0]","Comment":null,"Index":17,"FileName":"Rubik-Italic.ttf","MimeType":"application/x-truetype-font","DeliveryUrl":null},{"Codec":"ttf","CodecTag":"[0][0][0][0]","Comment":null,"Index":18,"FileName":"Rubik-Regular.ttf","MimeType":"application/x-truetype-font","DeliveryUrl":null},{"Codec":"ttf","CodecTag":"[0][0][0][0]","Comment":null,"Index":19,"FileName":"Rubik-BoldItalic.ttf","MimeType":"application/x-truetype-font","DeliveryUrl":null},{"Codec":"ttf","CodecTag":"[0][0][0][0]","Comment":null,"Index":20,"FileName":"Rubik-Bold.ttf","MimeType":"application/x-truetype-font","DeliveryUrl":null}],"Formats":[],"Bitrate":8245757,"Timestamp":null,"RequiredHttpHeaders":{},"TranscodingUrl":null,"TranscodingSubProtocol":null,"TranscodingContainer":null,"AnalyzeDurationMs":null,"DefaultAudioStreamIndex":null,"DefaultSubtitleStreamIndex":null}

/usr/lib/jellyfin-ffmpeg/ffmpeg -analyzeduration 200M -fflags +genpts -f matroska,webm  -i file:"/data/movies/To Every You I've Loved Before (2022)/To Every You I've Loved Before (2022) WEBDL-1080p.mkv" -map_metadata -1 -map_chapters -1 -threads 0 -map 0:0 -map 0:1 -map -0:s -codec:v:0 copy -bsf:v h264_mp4toannexb -start_at_zero -codec:a:0 copy -copyts -avoid_negative_ts disabled -max_muxing_queue_size 2048 -f hls -max_delay 5000000 -hls_time 6 -hls_segment_type mpegts -start_number 0 -hls_segment_filename "/data/transcodes/6987704996000fc18819ff30771eb0ed%d.ts" -hls_playlist_type vod -hls_list_size 0 -y "/data/transcodes/6987704996000fc18819ff30771eb0ed.m3u8"


ffmpeg version 5.1.3-Jellyfin Copyright (c) 2000-2022 the FFmpeg developers
  built with gcc 11 (Ubuntu 11.3.0-1ubuntu1~22.04.1)
  configuration: --prefix=/usr/lib/jellyfin-ffmpeg --target-os=linux --extra-libs=-lfftw3f --extra-version=Jellyfin --disable-doc --disable-ffplay --disable-ptx-compression --disable-static --disable-libxcb --disable-sdl2 --disable-xlib --enable-lto --enable-gpl --enable-version3 --enable-shared --enable-gmp --enable-gnutls --enable-chromaprint --enable-libdrm --enable-libass --enable-libfreetype --enable-libfribidi --enable-libfontconfig --enable-libbluray --enable-libmp3lame --enable-libopus --enable-libtheora --enable-libvorbis --enable-libopenmpt --enable-libdav1d --enable-libwebp --enable-libvpx --enable-libx264 --enable-libx265 --enable-libzvbi --enable-libzimg --enable-libfdk-aac --arch=amd64 --enable-libsvtav1 --enable-libshaderc --enable-libplacebo --enable-vulkan --enable-opencl --enable-vaapi --enable-amf --enable-libmfx --enable-ffnvcodec --enable-cuda --enable-cuda-llvm --enable-cuvid --enable-nvdec --enable-nvenc
  libavutil      57. 28.100 / 57. 28.100
  libavcodec     59. 37.100 / 59. 37.100
  libavformat    59. 27.100 / 59. 27.100
  libavdevice    59.  7.100 / 59.  7.100
  libavfilter     8. 44.100 /  8. 44.100
  libswscale      6.  7.100 /  6.  7.100
  libswresample   4.  7.100 /  4.  7.100
  libpostproc    56.  6.100 / 56.  6.100
Input #0, matroska,webm, from 'file:/data/movies/To Every You I've Loved Before (2022)/To Every You I've Loved Before (2022) WEBDL-1080p.mkv':
  Metadata:
    title           : To Every You I've Loved Before (2022) VOSTFR 1080p WEB x264 AAC -Tsundere-Raws (CR)
    encoder         : Auto Multi Downloader v2.0.3-beta [Roselia]
  Duration: 01:42:17.22, start: 0.000000, bitrate: 8117 kb/s
  Stream #0:0: Video: h264 (High), yuv420p(progressive), 1920x1080 [SAR 1:1 DAR 16:9], 23.98 fps, 23.98 tbr, 1k tbn (default)
    Metadata:
      BPS             : 7982371
      DURATION        : 01:42:17.137000000
      NUMBER_OF_FRAMES: 147144
      NUMBER_OF_BYTES : 6123613670
      _STATISTICS_WRITING_APP: mkvmerge v67.0.0 ('Under Stars') 64-bit
      _STATISTICS_WRITING_DATE_UTC: 2023-04-21 05:15:24
      _STATISTICS_TAGS: BPS DURATION NUMBER_OF_FRAMES NUMBER_OF_BYTES
  Stream #0:1(jpn): Audio: aac (LC), 44100 Hz, stereo, fltp (default)
    Metadata:
      BPS             : 127999
      DURATION        : 01:42:17.218000000
      NUMBER_OF_FRAMES: 264307
      NUMBER_OF_BYTES : 98195145
      _STATISTICS_WRITING_APP: mkvmerge v67.0.0 ('Under Stars') 64-bit
      _STATISTICS_WRITING_DATE_UTC: 2023-04-21 05:15:24
      _STATISTICS_TAGS: BPS DURATION NUMBER_OF_FRAMES NUMBER_OF_BYTES
  Stream #0:2(fre): Subtitle: ass (default)
    Metadata:
      BPS             : 129
      DURATION        : 01:36:38.550000000
      NUMBER_OF_FRAMES: 1300
      NUMBER_OF_BYTES : 94016
      _STATISTICS_WRITING_APP: mkvmerge v67.0.0 ('Under Stars') 64-bit
      _STATISTICS_WRITING_DATE_UTC: 2023-04-21 05:15:24
      _STATISTICS_TAGS: BPS DURATION NUMBER_OF_FRAMES NUMBER_OF_BYTES
  Stream #0:3: Attachment: ttf
    Metadata:
      filename        : trebucbd.ttf
      mimetype        : application/x-truetype-font
  Stream #0:4: Attachment: ttf
    Metadata:
      filename        : trebucbi.ttf
      mimetype        : application/x-truetype-font
  Stream #0:5: Attachment: ttf
    Metadata:
      filename        : trebucit.ttf
      mimetype        : application/x-truetype-font
  Stream #0:6: Attachment: ttf
    Metadata:
      filename        : trebuc.ttf
      mimetype        : application/x-truetype-font
  Stream #0:7: Attachment: ttf
    Metadata:
      filename        : arialbi.ttf
      mimetype        : application/x-truetype-font
  Stream #0:8: Attachment: ttf
    Metadata:
      filename        : ariali.ttf
      mimetype        : application/x-truetype-font
  Stream #0:9: Attachment: ttf
    Metadata:
      filename        : arialbd.ttf
      mimetype        : application/x-truetype-font
  Stream #0:10: Attachment: ttf
    Metadata:
      filename        : arial.ttf
      mimetype        : application/x-truetype-font
  Stream #0:11: Attachment: ttf
    Metadata:
      filename        : comicbd.ttf
      mimetype        : application/x-truetype-font
  Stream #0:12: Attachment: ttf
    Metadata:
      filename        : comic.ttf
      mimetype        : application/x-truetype-font
  Stream #0:13: Attachment: ttf
    Metadata:
      filename        : timesi.ttf
      mimetype        : application/x-truetype-font
  Stream #0:14: Attachment: ttf
    Metadata:
      filename        : timesbd.ttf
      mimetype        : application/x-truetype-font
  Stream #0:15: Attachment: ttf
    Metadata:
      filename        : timesbi.ttf
      mimetype        : application/x-truetype-font
  Stream #0:16: Attachment: ttf
    Metadata:
      filename        : times.ttf
      mimetype        : application/x-truetype-font
  Stream #0:17: Attachment: ttf
    Metadata:
      filename        : Rubik-Italic.ttf
      mimetype        : application/x-truetype-font
  Stream #0:18: Attachment: ttf
    Metadata:
      filename        : Rubik-Regular.ttf
      mimetype        : application/x-truetype-font
  Stream #0:19: Attachment: ttf
    Metadata:
      filename        : Rubik-BoldItalic.ttf
      mimetype        : application/x-truetype-font
  Stream #0:20: Attachment: ttf
    Metadata:
      filename        : Rubik-Bold.ttf
      mimetype        : application/x-truetype-font
Output #0, hls, to '/data/transcodes/6987704996000fc18819ff30771eb0ed.m3u8':
  Metadata:
    encoder         : Lavf59.27.100
  Stream #0:0: Video: h264 (High), yuv420p(progressive), 1920x1080 [SAR 1:1 DAR 16:9], q=2-31, 23.98 fps, 23.98 tbr, 90k tbn (default)
  Stream #0:1: Audio: aac (LC), 44100 Hz, stereo, fltp (default)
Stream mapping:
  Stream #0:0 -> #0:0 (copy)
  Stream #0:1 -> #0:1 (copy)
Press [q] to stop, [?] for help
frame=    1 fps=0.0 q=-1.0 size=N/A time=00:00:00.00 bitrate=N/A speed=N/A    
[hls @ 0x555db81bcac0] Opening '/data/transcodes/6987704996000fc18819ff30771eb0ed0.ts' for writing
[hls @ 0x555db81bcac0] Opening '/data/transcodes/6987704996000fc18819ff30771eb0ed1.ts' for writing
[hls @ 0x555db81bcac0] Opening '/data/transcodes/6987704996000fc18819ff30771eb0ed2.ts' for writing
[hls @ 0x555db81bcac0] Opening '/data/transcodes/6987704996000fc18819ff30771eb0ed3.ts' for writing
[hls @ 0x555db81bcac0] Opening '/data/transcodes/6987704996000fc18819ff30771eb0ed4.ts' for writing
[hls @ 0x555db81bcac0] Opening '/data/transcodes/6987704996000fc18819ff30771eb0ed5.ts' for writing
[hls @ 0x555db81bcac0] Opening '/data/transcodes/6987704996000fc18819ff30771eb0ed6.ts' for writing
[hls @ 0x555db81bcac0] Opening '/data/transcodes/6987704996000fc18819ff30771eb0ed7.ts' for writing
[hls @ 0x555db81bcac0] Opening '/data/transcodes/6987704996000fc18819ff30771eb0ed8.ts' for writing
[hls @ 0x555db81bcac0] Opening '/data/transcodes/6987704996000fc18819ff30771eb0ed9.ts' for writing
[hls @ 0x555db81bcac0] Opening '/data/transcodes/6987704996000fc18819ff30771eb0ed10.ts' for writing
[hls @ 0x555db81bcac0] Opening '/data/transcodes/6987704996000fc18819ff30771eb0ed11.ts' for writing
[hls @ 0x555db81bcac0] Opening '/data/transcodes/6987704996000fc18819ff30771eb0ed12.ts' for writing
[hls @ 0x555db81bcac0] Opening '/data/transcodes/6987704996000fc18819ff30771eb0ed13.ts' for writing
[hls @ 0x555db81bcac0] Opening '/data/transcodes/6987704996000fc18819ff30771eb0ed14.ts' for writing
[hls @ 0x555db81bcac0] Opening '/data/transcodes/6987704996000fc18819ff30771eb0ed15.ts' for writing
[hls @ 0x555db81bcac0] Opening '/data/transcodes/6987704996000fc18819ff30771eb0ed16.ts' for writing
[hls @ 0x555db81bcac0] Opening '/data/transcodes/6987704996000fc18819ff30771eb0ed17.ts' for writing
[hls @ 0x555db81bcac0] Opening '/data/transcodes/6987704996000fc18819ff30771eb0ed18.ts' for writing
frame= 2737 fps=0.0 q=-1.0 size=N/A time=00:00:00.05 bitrate=N/A speed=0.116x    
[hls @ 0x555db81bcac0] Opening '/data/transcodes/6987704996000fc18819ff30771eb0ed19.ts' for writing
[hls @ 0x555db81bcac0] Opening '/data/transcodes/6987704996000fc18819ff30771eb0ed20.ts' for writing
[hls @ 0x555db81bcac0] Opening '/data/transcodes/6987704996000fc18819ff30771eb0ed21.ts' for writing
[hls @ 0x555db81bcac0] Opening '/data/transcodes/6987704996000fc18819ff30771eb0ed22.ts' for writing
[hls @ 0x555db81bcac0] Opening '/data/transcodes/6987704996000fc18819ff30771eb0ed23.ts' for writing
[hls @ 0x555db81bcac0] Opening '/data/transcodes/6987704996000fc18819ff30771eb0ed24.ts' for writing
[hls @ 0x555db81bcac0] Opening '/data/transcodes/6987704996000fc18819ff30771eb0ed25.ts' for writing
[hls @ 0x555db81bcac0] Opening '/data/transcodes/6987704996000fc18819ff30771eb0ed26.ts' for writing
[hls @ 0x555db81bcac0] Opening '/data/transcodes/6987704996000fc18819ff30771eb0ed27.ts' for writing
[hls @ 0x555db81bcac0] Opening '/data/transcodes/6987704996000fc18819ff30771eb0ed28.ts' for writing
[hls @ 0x555db81bcac0] Opening '/data/transcodes/6987704996000fc18819ff30771eb0ed29.ts' for writing
[hls @ 0x555db81bcac0] Opening '/data/transcodes/6987704996000fc18819ff30771eb0ed30.ts' for writing
[hls @ 0x555db81bcac0] Opening '/data/transcodes/6987704996000fc18819ff30771eb0ed31.ts' for writing
[hls @ 0x555db81bcac0] Opening '/data/transcodes/6987704996000fc18819ff30771eb0ed32.ts' for writing
[hls @ 0x555db81bcac0] Opening '/data/transcodes/6987704996000fc18819ff30771eb0ed33.ts' for writing
[hls @ 0x555db81bcac0] Opening '/data/transcodes/6987704996000fc18819ff30771eb0ed34.ts' for writing
[hls @ 0x555db81bcac0] Opening '/data/transcodes/6987704996000fc18819ff30771eb0ed35.ts' for writing
[hls @ 0x555db81bcac0] Opening '/data/transcodes/6987704996000fc18819ff30771eb0ed36.ts' for writing
[hls @ 0x555db81bcac0] Opening '/data/transcodes/6987704996000fc18819ff30771eb0ed37.ts' for writing
[hls @ 0x555db81bcac0] Opening '/data/transcodes/6987704996000fc18819ff30771eb0ed38.ts' for writing
frame= 5617 fps=5556 q=-1.0 size=N/A time=00:02:00.17 bitrate=N/A speed= 119x    
[hls @ 0x555db81bcac0] Opening '/data/transcodes/6987704996000fc18819ff30771eb0ed39.ts' for writing
[hls @ 0x555db81bcac0] Opening '/data/transcodes/6987704996000fc18819ff30771eb0ed40.ts' for writing
[hls @ 0x555db81bcac0] Opening '/data/transcodes/6987704996000fc18819ff30771eb0ed41.ts' for writing
[hls @ 0x555db81bcac0] Opening '/data/transcodes/6987704996000fc18819ff30771eb0ed42.ts' for writing
[hls @ 0x555db81bcac0] Opening '/data/transcodes/6987704996000fc18819ff30771eb0ed43.ts' for writing
[hls @ 0x555db81bcac0] Opening '/data/transcodes/6987704996000fc18819ff30771eb0ed44.ts' for writing
[hls @ 0x555db81bcac0] Opening '/data/transcodes/6987704996000fc18819ff30771eb0ed45.ts' for writing
[hls @ 0x555db81bcac0] Opening '/data/transcodes/6987704996000fc18819ff30771eb0ed46.ts' for writing
[hls @ 0x555db81bcac0] Opening '/data/transcodes/6987704996000fc18819ff30771eb0ed47.ts' for writing
[hls @ 0x555db81bcac0] Opening '/data/transcodes/6987704996000fc18819ff30771eb0ed48.ts' for writing
[hls @ 0x555db81bcac0] Opening '/data/transcodes/6987704996000fc18819ff30771eb0ed49.ts' for writing
[hls @ 0x555db81bcac0] Opening '/data/transcodes/6987704996000fc18819ff30771eb0ed50.ts' for writing
[hls @ 0x555db81bcac0] Opening '/data/transcodes/6987704996000fc18819ff30771eb0ed51.ts' for writing
[hls @ 0x555db81bcac0] Opening '/data/transcodes/6987704996000fc18819ff30771eb0ed52.ts' for writing
[hls @ 0x555db81bcac0] Opening '/data/transcodes/6987704996000fc18819ff30771eb0ed53.ts' for writing
frame= 7777 fps=5142 q=-1.0 size=N/A time=00:03:30.26 bitrate=N/A speed= 139x    
[hls @ 0x555db81bcac0] Opening '/data/transcodes/6987704996000fc18819ff30771eb0ed54.ts' for writing
[hls @ 0x555db81bcac0] Opening '/data/transcodes/6987704996000fc18819ff30771eb0ed55.ts' for writing
[hls @ 0x555db81bcac0] Opening '/data/transcodes/6987704996000fc18819ff30771eb0ed56.ts' for writing
[hls @ 0x555db81bcac0] Opening '/data/transcodes/6987704996000fc18819ff30771eb0ed57.ts' for writing
[hls @ 0x555db81bcac0] Opening '/data/transcodes/6987704996000fc18819ff30771eb0ed58.ts' for writing
[hls @ 0x555db81bcac0] Opening '/data/transcodes/6987704996000fc18819ff30771eb0ed59.ts' for writing
[hls @ 0x555db81bcac0] Opening '/data/transcodes/6987704996000fc18819ff30771eb0ed60.ts' for writing
[hls @ 0x555db81bcac0] Opening '/data/transcodes/6987704996000fc18819ff30771eb0ed61.ts' for writing
[hls @ 0x555db81bcac0] Opening '/data/transcodes/6987704996000fc18819ff30771eb0ed62.ts' for writing
[hls @ 0x555db81bcac0] Opening '/data/transcodes/6987704996000fc18819ff30771eb0ed63.ts' for writing
[hls @ 0x555db81bcac0] Opening '/data/transcodes/6987704996000fc18819ff30771eb0ed64.ts' for writing
[hls @ 0x555db81bcac0] Opening '/data/transcodes/6987704996000fc18819ff30771eb0ed65.ts' for writing
[hls @ 0x555db81bcac0] Opening '/data/transcodes/6987704996000fc18819ff30771eb0ed66.ts' for writing
[hls @ 0x555db81bcac0] Opening '/data/transcodes/6987704996000fc18819ff30771eb0ed67.ts' for writing
[hls @ 0x555db81bcac0] Opening '/data/transcodes/6987704996000fc18819ff30771eb0ed68.ts' for writing
frame=10033 fps=4984 q=-1.0 size=N/A time=00:05:04.33 bitrate=N/A speed= 151x    
[hls @ 0x555db81bcac0] Opening '/data/transcodes/6987704996000fc18819ff30771eb0ed69.ts' for writing
[hls @ 0x555db81bcac0] Opening '/data/transcodes/6987704996000fc18819ff30771eb0ed70.ts' for writing
[hls @ 0x555db81bcac0] Opening '/data/transcodes/6987704996000fc18819ff30771eb0ed71.ts' for writing
[hls @ 0x555db81bcac0] Opening '/data/transcodes/6987704996000fc18819ff30771eb0ed72.ts' for writing
[hls @ 0x555db81bcac0] Opening '/data/transcodes/6987704996000fc18819ff30771eb0ed73.ts' for writing
[hls @ 0x555db81bcac0] Opening '/data/transcodes/6987704996000fc18819ff30771eb0ed74.ts' for writing
[hls @ 0x555db81bcac0] Opening '/data/transcodes/6987704996000fc18819ff30771eb0ed75.ts' for writing
[hls @ 0x555db81bcac0] Opening '/data/transcodes/6987704996000fc18819ff30771eb0ed76.ts' for writing
[hls @ 0x555db81bcac0] Opening '/data/transcodes/6987704996000fc18819ff30771eb0ed77.ts' for writing
[hls @ 0x555db81bcac0] Opening '/data/transcodes/6987704996000fc18819ff30771eb0ed78.ts' for writing
[hls @ 0x555db81bcac0] Opening '/data/transcodes/6987704996000fc18819ff30771eb0ed79.ts' for writing
[hls @ 0x555db81bcac0] Opening '/data/transcodes/6987704996000fc18819ff30771eb0ed80.ts' for writing
frame=11737 fps=4670 q=-1.0 size=N/A time=00:06:15.50 bitrate=N/A speed= 149x    
[hls @ 0x555db81bcac0] Opening '/data/transcodes/6987704996000fc18819ff30771eb0ed81.ts' for writing
[hls @ 0x555db81bcac0] Opening '/data/transcodes/6987704996000fc18819ff30771eb0ed82.ts' for writing
[hls @ 0x555db81bcac0] Opening '/data/transcodes/6987704996000fc18819ff30771eb0ed83.ts' for writing
[hls @ 0x555db81bcac0] Opening '/data/transcodes/6987704996000fc18819ff30771eb0ed84.ts' for writing
[hls @ 0x555db81bcac0] Opening '/data/transcodes/6987704996000fc18819ff30771eb0ed85.ts' for writing
[hls @ 0x555db81bcac0] Opening '/data/transcodes/6987704996000fc18819ff30771eb0ed86.ts' for writing
[hls @ 0x555db81bcac0] Opening '/data/transcodes/6987704996000fc18819ff30771eb0ed87.ts' for writing
[hls @ 0x555db81bcac0] Opening '/data/transcodes/6987704996000fc18819ff30771eb0ed88.ts' for writing
[hls @ 0x555db81bcac0] Opening '/data/transcodes/6987704996000fc18819ff30771eb0ed89.ts' for writing
[hls @ 0x555db81bcac0] Opening '/data/transcodes/6987704996000fc18819ff30771eb0ed90.ts' for writing
[hls @ 0x555db81bcac0] Opening '/data/transcodes/6987704996000fc18819ff30771eb0ed91.ts' for writing
[hls @ 0x555db81bcac0] Opening '/data/transcodes/6987704996000fc18819ff30771eb0ed92.ts' for writing
frame=13534 fps=4491 q=-1.0 size=N/A time=00:07:30.40 bitrate=N/A speed= 149x    
[hls @ 0x555db81bcac0] Opening '/data/transcodes/6987704996000fc18819ff30771eb0ed93.ts' for writing
[hls @ 0x555db81bcac0] Opening '/data/transcodes/6987704996000fc18819ff30771eb0ed94.ts' for writing
[hls @ 0x555db81bcac0] Opening '/data/transcodes/6987704996000fc18819ff30771eb0ed95.ts' for writing
[hls @ 0x555db81bcac0] Opening '/data/transcodes/6987704996000fc18819ff30771eb0ed96.ts' for writing
[hls @ 0x555db81bcac0] Opening '/data/transcodes/6987704996000fc18819ff30771eb0ed97.ts' for writing
[hls @ 0x555db81bcac0] Opening '/data/transcodes/6987704996000fc18819ff30771eb0ed98.ts' for writing
[hls @ 0x555db81bcac0] Opening '/data/transcodes/6987704996000fc18819ff30771eb0ed99.ts' for writing
[hls @ 0x555db81bcac0] Opening '/data/transcodes/6987704996000fc18819ff30771eb0ed100.ts' for writing
[hls @ 0x555db81bcac0] Opening '/data/transcodes/6987704996000fc18819ff30771eb0ed101.ts' for writing
[hls @ 0x555db81bcac0] Opening '/data/transcodes/6987704996000fc18819ff30771eb0ed102.ts' for writing
[hls @ 0x555db81bcac0] Opening '/data/transcodes/6987704996000fc18819ff30771eb0ed103.ts' for writing
[hls @ 0x555db81bcac0] Opening '/data/transcodes/6987704996000fc18819ff30771eb0ed104.ts' for writing
[hls @ 0x555db81bcac0] Opening '/data/transcodes/6987704996000fc18819ff30771eb0ed105.ts' for writing
[hls @ 0x555db81bcac0] Opening '/data/transcodes/6987704996000fc18819ff30771eb0ed106.ts' for writing
frame=15511 fps=4415 q=-1.0 size=N/A time=00:08:52.90 bitrate=N/A speed= 152x    
[hls @ 0x555db81bcac0] Opening '/data/transcodes/6987704996000fc18819ff30771eb0ed107.ts' for writing
[hls @ 0x555db81bcac0] Opening '/data/transcodes/6987704996000fc18819ff30771eb0ed108.ts' for writing
[hls @ 0x555db81bcac0] Opening '/data/transcodes/6987704996000fc18819ff30771eb0ed109.ts' for writing
[hls @ 0x555db81bcac0] Opening '/data/transcodes/6987704996000fc18819ff30771eb0ed110.ts' for writing
[hls @ 0x555db81bcac0] Opening '/data/transcodes/6987704996000fc18819ff30771eb0ed111.ts' for writing
[hls @ 0x555db81bcac0] Opening '/data/transcodes/6987704996000fc18819ff30771eb0ed112.ts' for writing
[hls @ 0x555db81bcac0] Opening '/data/transcodes/6987704996000fc18819ff30771eb0ed113.ts' for writing
[hls @ 0x555db81bcac0] Opening '/data/transcodes/6987704996000fc18819ff30771eb0ed114.ts' for writing
[hls @ 0x555db81bcac0] Opening '/data/transcodes/6987704996000fc18819ff30771eb0ed115.ts' for writing
[hls @ 0x555db81bcac0] Opening '/data/transcodes/6987704996000fc18819ff30771eb0ed116.ts' for writing
[hls @ 0x555db81bcac0] Opening '/data/transcodes/6987704996000fc18819ff30771eb0ed117.ts' for writing
[hls @ 0x555db81bcac0] Opening '/data/transcodes/6987704996000fc18819ff30771eb0ed118.ts' for writing
[hls @ 0x555db81bcac0] Opening '/data/transcodes/6987704996000fc18819ff30771eb0ed119.ts' for writing
[hls @ 0x555db81bcac0] Opening '/data/transcodes/6987704996000fc18819ff30771eb0ed120.ts' for writing
[hls @ 0x555db81bcac0] Opening '/data/transcodes/6987704996000fc18819ff30771eb0ed121.ts' for writing
[hls @ 0x555db81bcac0] Opening '/data/transcodes/6987704996000fc18819ff30771eb0ed122.ts' for writing
[hls @ 0x555db81bcac0] Opening '/data/transcodes/6987704996000fc18819ff30771eb0ed123.ts' for writing
[hls @ 0x555db81bcac0] Opening '/data/transcodes/6987704996000fc18819ff30771eb0ed124.ts' for writing
[hls @ 0x555db81bcac0] Opening '/data/transcodes/6987704996000fc18819ff30771eb0ed125.ts' for writing
frame=18145 fps=4515 q=-1.0 size=N/A time=00:10:42.69 bitrate=N/A speed= 160x    
[hls @ 0x555db81bcac0] Opening '/data/transcodes/6987704996000fc18819ff30771eb0ed126.ts' for writing
[hls @ 0x555db81bcac0] Opening '/data/transcodes/6987704996000fc18819ff30771eb0ed127.ts' for writing
[hls @ 0x555db81bcac0] Opening '/data/transcodes/6987704996000fc18819ff30771eb0ed128.ts' for writing
[hls @ 0x555db81bcac0] Opening '/data/transcodes/6987704996000fc18819ff30771eb0ed129.ts' for writing
[hls @ 0x555db81bcac0] Opening '/data/transcodes/6987704996000fc18819ff30771eb0ed130.ts' for writing
[hls @ 0x555db81bcac0] Opening '/data/transcodes/6987704996000fc18819ff30771eb0ed131.ts' for writing
[hls @ 0x555db81bcac0] Opening '/data/transcodes/6987704996000fc18819ff30771eb0ed132.ts' for writing
[hls @ 0x555db81bcac0] Opening '/data/transcodes/6987704996000fc18819ff30771eb0ed133.ts' for writing
[hls @ 0x555db81bcac0] Opening '/data/transcodes/6987704996000fc18819ff30771eb0ed134.ts' for writing
[hls @ 0x555db81bcac0] Opening '/data/transcodes/6987704996000fc18819ff30771eb0ed135.ts' for writing
[hls @ 0x555db81bcac0] Opening '/data/transcodes/6987704996000fc18819ff30771eb0ed136.ts' for writing
[hls @ 0x555db81bcac0] Opening '/data/transcodes/6987704996000fc18819ff30771eb0ed137.ts' for writing
[hls @ 0x555db81bcac0] Opening '/data/transcodes/6987704996000fc18819ff30771eb0ed138.ts' for writing
[hls @ 0x555db81bcac0] Opening '/data/transcodes/6987704996000fc18819ff30771eb0ed139.ts' for writing
[hls @ 0x555db81bcac0] Opening '/data/transcodes/6987704996000fc18819ff30771eb0ed140.ts' for writing
frame=20401 fps=4515 q=-1.0 size=N/A time=00:12:16.78 bitrate=N/A speed= 163x    
[hls @ 0x555db81bcac0] Opening '/data/transcodes/6987704996000fc18819ff30771eb0ed141.ts' for writing
[hls @ 0x555db81bcac0] Opening '/data/transcodes/6987704996000fc18819ff30771eb0ed142.ts' for writing
[hls @ 0x555db81bcac0] Opening '/data/transcodes/6987704996000fc18819ff30771eb0ed143.ts' for writing
[hls @ 0x555db81bcac0] Opening '/data/transcodes/6987704996000fc18819ff30771eb0ed144.ts' for writing
[hls @ 0x555db81bcac0] Opening '/data/transcodes/6987704996000fc18819ff30771eb0ed145.ts' for writing
[hls @ 0x555db81bcac0] Opening '/data/transcodes/6987704996000fc18819ff30771eb0ed146.ts' for writing
[hls @ 0x555db81bcac0] Opening '/data/transcodes/6987704996000fc18819ff30771eb0ed147.ts' for writing
[hls @ 0x555db81bcac0] Opening '/data/transcodes/6987704996000fc18819ff30771eb0ed148.ts' for writing
[hls @ 0x555db81bcac0] Opening '/data/transcodes/6987704996000fc18819ff30771eb0ed149.ts' for writing
[hls @ 0x555db81bcac0] Opening '/data/transcodes/6987704996000fc18819ff30771eb0ed150.ts' for writing
[hls @ 0x555db81bcac0] Opening '/data/transcodes/6987704996000fc18819ff30771eb0ed151.ts' for writing
[hls @ 0x555db81bcac0] Opening '/data/transcodes/6987704996000fc18819ff30771eb0ed152.ts' for writing
[hls @ 0x555db81bcac0] Opening '/data/transcodes/6987704996000fc18819ff30771eb0ed153.ts' for writing
[hls @ 0x555db81bcac0] Opening '/data/transcodes/6987704996000fc18819ff30771eb0ed154.ts' for writing
[hls @ 0x555db81bcac0] Opening '/data/transcodes/6987704996000fc18819ff30771eb0ed155.ts' for writing
[hls @ 0x555db81bcac0] Opening '/data/transcodes/6987704996000fc18819ff30771eb0ed156.ts' for writing
[hls @ 0x555db81bcac0] Opening '/data/transcodes/6987704996000fc18819ff30771eb0ed157.ts' for writing
[hls @ 0x555db81bcac0] Opening '/data/transcodes/6987704996000fc18819ff30771eb0ed158.ts' for writing
[hls @ 0x555db81bcac0] Opening '/data/transcodes/6987704996000fc18819ff30771eb0ed159.ts' for writing
[hls @ 0x555db81bcac0] Opening '/data/transcodes/6987704996000fc18819ff30771eb0ed160.ts' for writing
[hls @ 0x555db81bcac0] Opening '/data/transcodes/6987704996000fc18819ff30771eb0ed161.ts' for writing
frame=23355 fps=4653 q=-1.0 size=N/A time=00:14:19.98 bitrate=N/A speed= 171x    
[hls @ 0x555db81bcac0] Opening '/data/transcodes/6987704996000fc18819ff30771eb0ed162.ts' for writing
[hls @ 0x555db81bcac0] Opening '/data/transcodes/6987704996000fc18819ff30771eb0ed163.ts' for writing
[hls @ 0x555db81bcac0] Opening '/data/transcodes/6987704996000fc18819ff30771eb0ed164.ts' for writing
[hls @ 0x555db81bcac0] Opening '/data/transcodes/6987704996000fc18819ff30771eb0ed165.ts' for writing
[hls @ 0x555db81bcac0] Opening '/data/transcodes/6987704996000fc18819ff30771eb0ed166.ts' for writing
[hls @ 0x555db81bcac0] Opening '/data/transcodes/6987704996000fc18819ff30771eb0ed167.ts' for writing
[hls @ 0x555db81bcac0] Opening '/data/transcodes/6987704996000fc18819ff30771eb0ed168.ts' for writing
[hls @ 0x555db81bcac0] Opening '/data/transcodes/6987704996000fc18819ff30771eb0ed169.ts' for writing
[hls @ 0x555db81bcac0] Opening '/data/transcodes/6987704996000fc18819ff30771eb0ed170.ts' for writing
[hls @ 0x555db81bcac0] Opening '/data/transcodes/6987704996000fc18819ff30771eb0ed171.ts' for writing
[hls @ 0x555db81bcac0] Opening '/data/transcodes/6987704996000fc18819ff30771eb0ed172.ts' for writing
[hls @ 0x555db81bcac0] Opening '/data/transcodes/6987704996000fc18819ff30771eb0ed173.ts' for writing
[hls @ 0x555db81bcac0] Opening '/data/transcodes/6987704996000fc18819ff30771eb0ed174.ts' for writing
[hls @ 0x555db81bcac0] Opening '/data/transcodes/6987704996000fc18819ff30771eb0ed175.ts' for writing
[hls @ 0x555db81bcac0] Opening '/data/transcodes/6987704996000fc18819ff30771eb0ed176.ts' for writing
[hls @ 0x555db81bcac0] Opening '/data/transcodes/6987704996000fc18819ff30771eb0ed177.ts' for writing
[hls @ 0x555db81bcac0] Opening '/data/transcodes/6987704996000fc18819ff30771eb0ed178.ts' for writing
[hls @ 0x555db81bcac0] Opening '/data/transcodes/6987704996000fc18819ff30771eb0ed179.ts' for writing
[hls @ 0x555db81bcac0] Opening '/data/transcodes/6987704996000fc18819ff30771eb0ed180.ts' for writing
[hls @ 0x555db81bcac0] Opening '/data/transcodes/6987704996000fc18819ff30771eb0ed181.ts' for writing
[hls @ 0x555db81bcac0] Opening '/data/transcodes/6987704996000fc18819ff30771eb0ed182.ts' for writing
[hls @ 0x555db81bcac0] Opening '/data/transcodes/6987704996000fc18819ff30771eb0ed183.ts' for writing
frame=26497 fps=4798 q=-1.0 size=N/A time=00:16:31.03 bitrate=N/A speed= 179x    
[hls @ 0x555db81bcac0] Opening '/data/transcodes/6987704996000fc18819ff30771eb0ed184.ts' for writing
[hls @ 0x555db81bcac0] Opening '/data/transcodes/6987704996000fc18819ff30771eb0ed185.ts' for writing
[hls @ 0x555db81bcac0] Opening '/data/transcodes/6987704996000fc18819ff30771eb0ed186.ts' for writing
[hls @ 0x555db81bcac0] Opening '/data/transcodes/6987704996000fc18819ff30771eb0ed187.ts' for writing
[hls @ 0x555db81bcac0] Opening '/data/transcodes/6987704996000fc18819ff30771eb0ed188.ts' for writing
[hls @ 0x555db81bcac0] Opening '/data/transcodes/6987704996000fc18819ff30771eb0ed189.ts' for writing
[hls @ 0x555db81bcac0] Opening '/data/transcodes/6987704996000fc18819ff30771eb0ed190.ts' for writing
[hls @ 0x555db81bcac0] Opening '/data/transcodes/6987704996000fc18819ff30771eb0ed191.ts' for writing
[hls @ 0x555db81bcac0] Opening '/data/transcodes/6987704996000fc18819ff30771eb0ed192.ts' for writing
[hls @ 0x555db81bcac0] Opening '/data/transcodes/6987704996000fc18819ff30771eb0ed193.ts' for writing
[hls @ 0x555db81bcac0] Opening '/data/transcodes/6987704996000fc18819ff30771eb0ed194.ts' for writing
[hls @ 0x555db81bcac0] Opening '/data/transcodes/6987704996000fc18819ff30771eb0ed195.ts' for writing
[hls @ 0x555db81bcac0] Opening '/data/transcodes/6987704996000fc18819ff30771eb0ed196.ts' for writing
[hls @ 0x555db81bcac0] Opening '/data/transcodes/6987704996000fc18819ff30771eb0ed197.ts' for writing
frame=28553 fps=4741 q=-1.0 size=N/A time=00:17:56.85 bitrate=N/A speed= 179x    
[hls @ 0x555db81bcac0] Opening '/data/transcodes/6987704996000fc18819ff30771eb0ed198.ts' for writing
[hls @ 0x555db81bcac0] Opening '/data/transcodes/6987704996000fc18819ff30771eb0ed199.ts' for writing
[hls @ 0x555db81bcac0] Opening '/data/transcodes/6987704996000fc18819ff30771eb0ed200.ts' for writing
[hls @ 0x555db81bcac0] Opening '/data/transcodes/6987704996000fc18819ff30771eb0ed201.ts' for writing
[hls @ 0x555db81bcac0] Opening '/data/transcodes/6987704996000fc18819ff30771eb0ed202.ts' for writing
[hls @ 0x555db81bcac0] Opening '/data/transcodes/6987704996000fc18819ff30771eb0ed203.ts' for writing
[hls @ 0x555db81bcac0] Opening '/data/transcodes/6987704996000fc18819ff30771eb0ed204.ts' for writing
[hls @ 0x555db81bcac0] Opening '/data/transcodes/6987704996000fc18819ff30771eb0ed205.ts' for writing
[hls @ 0x555db81bcac0] Opening '/data/transcodes/6987704996000fc18819ff30771eb0ed206.ts' for writing
[hls @ 0x555db81bcac0] Opening '/data/transcodes/6987704996000fc18819ff30771eb0ed207.ts' for writing
[hls @ 0x555db81bcac0] Opening '/data/transcodes/6987704996000fc18819ff30771eb0ed208.ts' for writing
[hls @ 0x555db81bcac0] Opening '/data/transcodes/6987704996000fc18819ff30771eb0ed209.ts' for writing
[hls @ 0x555db81bcac0] Opening '/data/transcodes/6987704996000fc18819ff30771eb0ed210.ts' for writing
[hls @ 0x555db81bcac0] Opening '/data/transcodes/6987704996000fc18819ff30771eb0ed211.ts' for writing
frame=30529 fps=4679 q=-1.0 size=N/A time=00:19:19.22 bitrate=N/A speed= 178x    
[hls @ 0x555db81bcac0] Opening '/data/transcodes/6987704996000fc18819ff30771eb0ed212.ts' for writing
[hls @ 0x555db81bcac0] Opening '/data/transcodes/6987704996000fc18819ff30771eb0ed213.ts' for writing
[hls @ 0x555db81bcac0] Opening '/data/transcodes/6987704996000fc18819ff30771eb0ed214.ts' for writing
[hls @ 0x555db81bcac0] Opening '/data/transcodes/6987704996000fc18819ff30771eb0ed215.ts' for writing
[hls @ 0x555db81bcac0] Opening '/data/transcodes/6987704996000fc18819ff30771eb0ed216.ts' for writing
[hls @ 0x555db81bcac0] Opening '/data/transcodes/6987704996000fc18819ff30771eb0ed217.ts' for writing
[hls @ 0x555db81bcac0] Opening '/data/transcodes/6987704996000fc18819ff30771eb0ed218.ts' for writing
[hls @ 0x555db81bcac0] Opening '/data/transcodes/6987704996000fc18819ff30771eb0ed219.ts' for writing
[hls @ 0x555db81bcac0] Opening '/data/transcodes/6987704996000fc18819ff30771eb0ed220.ts' for writing
[hls @ 0x555db81bcac0] Opening '/data/transcodes/6987704996000fc18819ff30771eb0ed221.ts' for writing
[hls @ 0x555db81bcac0] Opening '/data/transcodes/6987704996000fc18819ff30771eb0ed222.ts' for writing
[hls @ 0x555db81bcac0] Opening '/data/transcodes/6987704996000fc18819ff30771eb0ed223.ts' for writing
frame=32301 fps=4598 q=-1.0 size=N/A time=00:20:33.12 bitrate=N/A speed= 176x    
[hls @ 0x555db81bcac0] Opening '/data/transcodes/6987704996000fc18819ff30771eb0ed224.ts' for writing
[hls @ 0x555db81bcac0] Opening '/data/transcodes/6987704996000fc18819ff30771eb0ed225.ts' for writing
[hls @ 0x555db81bcac0] Opening '/data/transcodes/6987704996000fc18819ff30771eb0ed226.ts' for writing
[hls @ 0x555db81bcac0] Opening '/data/transcodes/6987704996000fc18819ff30771eb0ed227.ts' for writing
[hls @ 0x555db81bcac0] Opening '/data/transcodes/6987704996000fc18819ff30771eb0ed228.ts' for writing
[hls @ 0x555db81bcac0] Opening '/data/transcodes/6987704996000fc18819ff30771eb0ed229.ts' for writing
[hls @ 0x555db81bcac0] Opening '/data/transcodes/6987704996000fc18819ff30771eb0ed230.ts' for writing
frame=33316 fps=4426 q=-1.0 size=N/A time=00:21:15.48 bitrate=N/A speed= 169x    
[hls @ 0x555db81bcac0] Opening '/data/transcodes/6987704996000fc18819ff30771eb0ed231.ts' for writing
[hls @ 0x555db81bcac0] Opening '/data/transcodes/6987704996000fc18819ff30771eb0ed232.ts' for writing
[hls @ 0x555db81bcac0] Opening '/data/transcodes/6987704996000fc18819ff30771eb0ed233.ts' for writing
[hls @ 0x555db81bcac0] Opening '/data/transcodes/6987704996000fc18819ff30771eb0ed234.ts' for writing
[hls @ 0x555db81bcac0] Opening '/data/transcodes/6987704996000fc18819ff30771eb0ed235.ts' for writing
[hls @ 0x555db81bcac0] Opening '/data/transcodes/6987704996000fc18819ff30771eb0ed236.ts' for writing
[hls @ 0x555db81bcac0] Opening '/data/transcodes/6987704996000fc18819ff30771eb0ed237.ts' for writing
[hls @ 0x555db81bcac0] Opening '/data/transcodes/6987704996000fc18819ff30771eb0ed238.ts' for writing
[hls @ 0x555db81bcac0] Opening '/data/transcodes/6987704996000fc18819ff30771eb0ed239.ts' for writing
[hls @ 0x555db81bcac0] Opening '/data/transcodes/6987704996000fc18819ff30771eb0ed240.ts' for writing
[hls @ 0x555db81bcac0] Opening '/data/transcodes/6987704996000fc18819ff30771eb0ed241.ts' for writing
[hls @ 0x555db81bcac0] Opening '/data/transcodes/6987704996000fc18819ff30771eb0ed242.ts' for writing
[hls @ 0x555db81bcac0] Opening '/data/transcodes/6987704996000fc18819ff30771eb0ed243.ts' for writing
frame=35137 fps=4375 q=-1.0 size=N/A time=00:22:31.41 bitrate=N/A speed= 168x    
[hls @ 0x555db81bcac0] Opening '/data/transcodes/6987704996000fc18819ff30771eb0ed244.ts' for writing
[hls @ 0x555db81bcac0] Opening '/data/transcodes/6987704996000fc18819ff30771eb0ed245.ts' for writing
[hls @ 0x555db81bcac0] Opening '/data/transcodes/6987704996000fc18819ff30771eb0ed246.ts' for writing
[hls @ 0x555db81bcac0] Opening '/data/transcodes/6987704996000fc18819ff30771eb0ed247.ts' for writing
[hls @ 0x555db81bcac0] Opening '/data/transcodes/6987704996000fc18819ff30771eb0ed248.ts' for writing
[hls @ 0x555db81bcac0] Opening '/data/transcodes/6987704996000fc18819ff30771eb0ed249.ts' for writing
[hls @ 0x555db81bcac0] Opening '/data/transcodes/6987704996000fc18819ff30771eb0ed250.ts' for writing
[hls @ 0x555db81bcac0] Opening '/data/transcodes/6987704996000fc18819ff30771eb0ed251.ts' for writing
[hls @ 0x555db81bcac0] Opening '/data/transcodes/6987704996000fc18819ff30771eb0ed252.ts' for writing
[hls @ 0x555db81bcac0] Opening '/data/transcodes/6987704996000fc18819ff30771eb0ed253.ts' for writing
[hls @ 0x555db81bcac0] Opening '/data/transcodes/6987704996000fc18819ff30771eb0ed254.ts' for writing
[hls @ 0x555db81bcac0] Opening '/data/transcodes/6987704996000fc18819ff30771eb0ed255.ts' for writing
[hls @ 0x555db81bcac0] Opening '/data/transcodes/6987704996000fc18819ff30771eb0ed256.ts' for writing
[hls @ 0x555db81bcac0] Opening '/data/transcodes/6987704996000fc18819ff30771eb0ed257.ts' for writing
[hls @ 0x555db81bcac0] Opening '/data/transcodes/6987704996000fc18819ff30771eb0ed258.ts' for writing
[hls @ 0x555db81bcac0] Opening '/data/transcodes/6987704996000fc18819ff30771eb0ed259.ts' for writing
[hls @ 0x555db81bcac0] Opening '/data/transcodes/6987704996000fc18819ff30771eb0ed260.ts' for writing
[hls @ 0x555db81bcac0] Opening '/data/transcodes/6987704996000fc18819ff30771eb0ed261.ts' for writing
[hls @ 0x555db81bcac0] Opening '/data/transcodes/6987704996000fc18819ff30771eb0ed262.ts' for writing
[hls @ 0x555db81bcac0] Opening '/data/transcodes/6987704996000fc18819ff30771eb0ed263.ts' for writing
[hls @ 0x555db81bcac0] Opening '/data/transcodes/6987704996000fc18819ff30771eb0ed264.ts' for writing
[hls @ 0x555db81bcac0] Opening '/data/transcodes/6987704996000fc18819ff30771eb0ed265.ts' for writing
[hls @ 0x555db81bcac0] Opening '/data/transcodes/6987704996000fc18819ff30771eb0ed266.ts' for writing
[hls @ 0x555db81bcac0] Opening '/data/transcodes/6987704996000fc18819ff30771eb0ed267.ts' for writing
frame=38593 fps=4520 q=-1.0 size=N/A time=00:24:55.56 bitrate=N/A speed= 175x    
[hls @ 0x555db81bcac0] Opening '/data/transcodes/6987704996000fc18819ff30771eb0ed268.ts' for writing
[hls @ 0x555db81bcac0] Opening '/data/transcodes/6987704996000fc18819ff30771eb0ed269.ts' for writing
[hls @ 0x555db81bcac0] Opening '/data/transcodes/6987704996000fc18819ff30771eb0ed270.ts' for writing
[hls @ 0x555db81bcac0] Opening '/data/transcodes/6987704996000fc18819ff30771eb0ed271.ts' for writing
[hls @ 0x555db81bcac0] Opening '/data/transcodes/6987704996000fc18819ff30771eb0ed272.ts' for writing
[hls @ 0x555db81bcac0] Opening '/data/transcodes/6987704996000fc18819ff30771eb0ed273.ts' for writing
[hls @ 0x555db81bcac0] Opening '/data/transcodes/6987704996000fc18819ff30771eb0ed274.ts' for writing
[hls @ 0x555db81bcac0] Opening '/data/transcodes/6987704996000fc18819ff30771eb0ed275.ts' for writing
[hls @ 0x555db81bcac0] Opening '/data/transcodes/6987704996000fc18819ff30771eb0ed276.ts' for writing
[hls @ 0x555db81bcac0] Opening '/data/transcodes/6987704996000fc18819ff30771eb0ed277.ts' for writing
[hls @ 0x555db81bcac0] Opening '/data/transcodes/6987704996000fc18819ff30771eb0ed278.ts' for writing
[hls @ 0x555db81bcac0] Opening '/data/transcodes/6987704996000fc18819ff30771eb0ed279.ts' for writing
[hls @ 0x555db81bcac0] Opening '/data/transcodes/6987704996000fc18819ff30771eb0ed280.ts' for writing
[hls @ 0x555db81bcac0] Opening '/data/transcodes/6987704996000fc18819ff30771eb0ed281.ts' for writing
[hls @ 0x555db81bcac0] Opening '/data/transcodes/6987704996000fc18819ff30771eb0ed282.ts' for writing
[hls @ 0x555db81bcac0] Opening '/data/transcodes/6987704996000fc18819ff30771eb0ed283.ts' for writing
[hls @ 0x555db81bcac0] Opening '/data/transcodes/6987704996000fc18819ff30771eb0ed284.ts' for writing
[hls @ 0x555db81bcac0] Opening '/data/transcodes/6987704996000fc18819ff30771eb0ed285.ts' for writing
[hls @ 0x555db81bcac0] Opening '/data/transcodes/6987704996000fc18819ff30771eb0ed286.ts' for writing
frame=41397 fps=4581 q=-1.0 size=N/A time=00:26:52.54 bitrate=N/A speed= 178x    
[hls @ 0x555db81bcac0] Opening '/data/transcodes/6987704996000fc18819ff30771eb0ed287.ts' for writing
[hls @ 0x555db81bcac0] Opening '/data/transcodes/6987704996000fc18819ff30771eb0ed288.ts' for writing
[hls @ 0x555db81bcac0] Opening '/data/transcodes/6987704996000fc18819ff30771eb0ed289.ts' for writing
[hls @ 0x555db81bcac0] Opening '/data/transcodes/6987704996000fc18819ff30771eb0ed290.ts' for writing
[hls @ 0x555db81bcac0] Opening '/data/transcodes/6987704996000fc18819ff30771eb0ed291.ts' for writing
[hls @ 0x555db81bcac0] Opening '/data/transcodes/6987704996000fc18819ff30771eb0ed292.ts' for writing
[hls @ 0x555db81bcac0] Opening '/data/transcodes/6987704996000fc18819ff30771eb0ed293.ts' for writing
[hls @ 0x555db81bcac0] Opening '/data/transcodes/6987704996000fc18819ff30771eb0ed294.ts' for writing
[hls @ 0x555db81bcac0] Opening '/data/transcodes/6987704996000fc18819ff30771eb0ed295.ts' for writing
[hls @ 0x555db81bcac0] Opening '/data/transcodes/6987704996000fc18819ff30771eb0ed296.ts' for writing
[hls @ 0x555db81bcac0] Opening '/data/transcodes/6987704996000fc18819ff30771eb0ed297.ts' for writing
[hls @ 0x555db81bcac0] Opening '/data/transcodes/6987704996000fc18819ff30771eb0ed298.ts' for writing
[hls @ 0x555db81bcac0] Opening '/data/transcodes/6987704996000fc18819ff30771eb0ed299.ts' for writing
[hls @ 0x555db81bcac0] Opening '/data/transcodes/6987704996000fc18819ff30771eb0ed300.ts' for writing
[hls @ 0x555db81bcac0] Opening '/data/transcodes/6987704996000fc18819ff30771eb0ed301.ts' for writing
[hls @ 0x555db81bcac0] Opening '/data/transcodes/6987704996000fc18819ff30771eb0ed302.ts' for writing
[hls @ 0x555db81bcac0] Opening '/data/transcodes/6987704996000fc18819ff30771eb0ed303.ts' for writing
frame=43777 fps=4589 q=-1.0 size=N/A time=00:28:31.76 bitrate=N/A speed= 179x    
[hls @ 0x555db81bcac0] Opening '/data/transcodes/6987704996000fc18819ff30771eb0ed304.ts' for writing
[hls @ 0x555db81bcac0] Opening '/data/transcodes/6987704996000fc18819ff30771eb0ed305.ts' for writing
[hls @ 0x555db81bcac0] Opening '/data/transcodes/6987704996000fc18819ff30771eb0ed306.ts' for writing
[hls @ 0x555db81bcac0] Opening '/data/transcodes/6987704996000fc18819ff30771eb0ed307.ts' for writing
[hls @ 0x555db81bcac0] Opening '/data/transcodes/6987704996000fc18819ff30771eb0ed308.ts' for writing
[hls @ 0x555db81bcac0] Opening '/data/transcodes/6987704996000fc18819ff30771eb0ed309.ts' for writing
[hls @ 0x555db81bcac0] Opening '/data/transcodes/6987704996000fc18819ff30771eb0ed310.ts' for writing
[hls @ 0x555db81bcac0] Opening '/data/transcodes/6987704996000fc18819ff30771eb0ed311.ts' for writing
[hls @ 0x555db81bcac0] Opening '/data/transcodes/6987704996000fc18819ff30771eb0ed312.ts' for writing
[hls @ 0x555db81bcac0] Opening '/data/transcodes/6987704996000fc18819ff30771eb0ed313.ts' for writing
[hls @ 0x555db81bcac0] Opening '/data/transcodes/6987704996000fc18819ff30771eb0ed314.ts' for writing
[hls @ 0x555db81bcac0] Opening '/data/transcodes/6987704996000fc18819ff30771eb0ed315.ts' for writing
[hls @ 0x555db81bcac0] Opening '/data/transcodes/6987704996000fc18819ff30771eb0ed316.ts' for writing
[hls @ 0x555db81bcac0] Opening '/data/transcodes/6987704996000fc18819ff30771eb0ed317.ts' for writing
[hls @ 0x555db81bcac0] Opening '/data/transcodes/6987704996000fc18819ff30771eb0ed318.ts' for writing
[hls @ 0x555db81bcac0] Opening '/data/transcodes/6987704996000fc18819ff30771eb0ed319.ts' for writing
[hls @ 0x555db81bcac0] Opening '/data/transcodes/6987704996000fc18819ff30771eb0ed320.ts' for writing
frame=46331 fps=4615 q=-1.0 size=N/A time=00:30:18.38 bitrate=N/A speed= 181x    
[hls @ 0x555db81bcac0] Opening '/data/transcodes/6987704996000fc18819ff30771eb0ed321.ts' for writing
[hls @ 0x555db81bcac0] Opening '/data/transcodes/6987704996000fc18819ff30771eb0ed322.ts' for writing
[hls @ 0x555db81bcac0] Opening '/data/transcodes/6987704996000fc18819ff30771eb0ed323.ts' for writing
[hls @ 0x555db81bcac0] Opening '/data/transcodes/6987704996000fc18819ff30771eb0ed324.ts' for writing
[hls @ 0x555db81bcac0] Opening '/data/transcodes/6987704996000fc18819ff30771eb0ed325.ts' for writing
[hls @ 0x555db81bcac0] Opening '/data/transcodes/6987704996000fc18819ff30771eb0ed326.ts' for writing
[hls @ 0x555db81bcac0] Opening '/data/transcodes/6987704996000fc18819ff30771eb0ed327.ts' for writing
[hls @ 0x555db81bcac0] Opening '/data/transcodes/6987704996000fc18819ff30771eb0ed328.ts' for writing
[hls @ 0x555db81bcac0] Opening '/data/transcodes/6987704996000fc18819ff30771eb0ed329.ts' for writing
[hls @ 0x555db81bcac0] Opening '/data/transcodes/6987704996000fc18819ff30771eb0ed330.ts' for writing
[hls @ 0x555db81bcac0] Opening '/data/transcodes/6987704996000fc18819ff30771eb0ed331.ts' for writing
[hls @ 0x555db81bcac0] Opening '/data/transcodes/6987704996000fc18819ff30771eb0ed332.ts' for writing
[hls @ 0x555db81bcac0] Opening '/data/transcodes/6987704996000fc18819ff30771eb0ed333.ts' for writing
[hls @ 0x555db81bcac0] Opening '/data/transcodes/6987704996000fc18819ff30771eb0ed334.ts' for writing
[hls @ 0x555db81bcac0] Opening '/data/transcodes/6987704996000fc18819ff30771eb0ed335.ts' for writing
[hls @ 0x555db81bcac0] Opening '/data/transcodes/6987704996000fc18819ff30771eb0ed336.ts' for writing
[hls @ 0x555db81bcac0] Opening '/data/transcodes/6987704996000fc18819ff30771eb0ed337.ts' for writing
frame=48625 fps=4613 q=-1.0 size=N/A time=00:31:53.96 bitrate=N/A speed= 182x    
[hls @ 0x555db81bcac0] Opening '/data/transcodes/6987704996000fc18819ff30771eb0ed338.ts' for writing
[hls @ 0x555db81bcac0] Opening '/data/transcodes/6987704996000fc18819ff30771eb0ed339.ts' for writing
[hls @ 0x555db81bcac0] Opening '/data/transcodes/6987704996000fc18819ff30771eb0ed340.ts' for writing
[hls @ 0x555db81bcac0] Opening '/data/transcodes/6987704996000fc18819ff30771eb0ed341.ts' for writing
[hls @ 0x555db81bcac0] Opening '/data/transcodes/6987704996000fc18819ff30771eb0ed342.ts' for writing
[hls @ 0x555db81bcac0] Opening '/data/transcodes/6987704996000fc18819ff30771eb0ed343.ts' for writing
[hls @ 0x555db81bcac0] Opening '/data/transcodes/6987704996000fc18819ff30771eb0ed344.ts' for writing
[hls @ 0x555db81bcac0] Opening '/data/transcodes/6987704996000fc18819ff30771eb0ed345.ts' for writing
[hls @ 0x555db81bcac0] Opening '/data/transcodes/6987704996000fc18819ff30771eb0ed346.ts' for writing
[hls @ 0x555db81bcac0] Opening '/data/transcodes/6987704996000fc18819ff30771eb0ed347.ts' for writing
[hls @ 0x555db81bcac0] Opening '/data/transcodes/6987704996000fc18819ff30771eb0ed348.ts' for writing
[hls @ 0x555db81bcac0] Opening '/data/transcodes/6987704996000fc18819ff30771eb0ed349.ts' for writing
[hls @ 0x555db81bcac0] Opening '/data/transcodes/6987704996000fc18819ff30771eb0ed350.ts' for writing
[hls @ 0x555db81bcac0] Opening '/data/transcodes/6987704996000fc18819ff30771eb0ed351.ts' for writing
[hls @ 0x555db81bcac0] Opening '/data/transcodes/6987704996000fc18819ff30771eb0ed352.ts' for writing
frame=50785 fps=4599 q=-1.0 size=N/A time=00:33:24.05 bitrate=N/A speed= 181x    
[hls @ 0x555db81bcac0] Opening '/data/transcodes/6987704996000fc18819ff30771eb0ed353.ts' for writing
[hls @ 0x555db81bcac0] Opening '/data/transcodes/6987704996000fc18819ff30771eb0ed354.ts' for writing
[hls @ 0x555db81bcac0] Opening '/data/transcodes/6987704996000fc18819ff30771eb0ed355.ts' for writing
[hls @ 0x555db81bcac0] Opening '/data/transcodes/6987704996000fc18819ff30771eb0ed356.ts' for writing
[hls @ 0x555db81bcac0] Opening '/data/transcodes/6987704996000fc18819ff30771eb0ed357.ts' for writing
[hls @ 0x555db81bcac0] Opening '/data/transcodes/6987704996000fc18819ff30771eb0ed358.ts' for writing
[hls @ 0x555db81bcac0] Opening '/data/transcodes/6987704996000fc18819ff30771eb0ed359.ts' for writing
[hls @ 0x555db81bcac0] Opening '/data/transcodes/6987704996000fc18819ff30771eb0ed360.ts' for writing
[hls @ 0x555db81bcac0] Opening '/data/transcodes/6987704996000fc18819ff30771eb0ed361.ts' for writing
[hls @ 0x555db81bcac0] Opening '/data/transcodes/6987704996000fc18819ff30771eb0ed362.ts' for writing
[hls @ 0x555db81bcac0] Opening '/data/transcodes/6987704996000fc18819ff30771eb0ed363.ts' for writing
[hls @ 0x555db81bcac0] Opening '/data/transcodes/6987704996000fc18819ff30771eb0ed364.ts' for writing
[hls @ 0x555db81bcac0] Opening '/data/transcodes/6987704996000fc18819ff30771eb0ed365.ts' for writing
frame=52692 fps=4565 q=-1.0 size=N/A time=00:34:43.58 bitrate=N/A speed= 181x    
[hls @ 0x555db81bcac0] Opening '/data/transcodes/6987704996000fc18819ff30771eb0ed366.ts' for writing
[hls @ 0x555db81bcac0] Opening '/data/transcodes/6987704996000fc18819ff30771eb0ed367.ts' for writing
[hls @ 0x555db81bcac0] Opening '/data/transcodes/6987704996000fc18819ff30771eb0ed368.ts' for writing
[hls @ 0x555db81bcac0] Opening '/data/transcodes/6987704996000fc18819ff30771eb0ed369.ts' for writing
[hls @ 0x555db81bcac0] Opening '/data/transcodes/6987704996000fc18819ff30771eb0ed370.ts' for writing
[hls @ 0x555db81bcac0] Opening '/data/transcodes/6987704996000fc18819ff30771eb0ed371.ts' for writing
[hls @ 0x555db81bcac0] Opening '/data/transcodes/6987704996000fc18819ff30771eb0ed372.ts' for writing
[hls @ 0x555db81bcac0] Opening '/data/transcodes/6987704996000fc18819ff30771eb0ed373.ts' for writing
[hls @ 0x555db81bcac0] Opening '/data/transcodes/6987704996000fc18819ff30771eb0ed374.ts' for writing
[hls @ 0x555db81bcac0] Opening '/data/transcodes/6987704996000fc18819ff30771eb0ed375.ts' for writing
[hls @ 0x555db81bcac0] Opening '/data/transcodes/6987704996000fc18819ff30771eb0ed376.ts' for writing
[hls @ 0x555db81bcac0] Opening '/data/transcodes/6987704996000fc18819ff30771eb0ed377.ts' for writing
[hls @ 0x555db81bcac0] Opening '/data/transcodes/6987704996000fc18819ff30771eb0ed378.ts' for writing
[hls @ 0x555db81bcac0] Opening '/data/transcodes/6987704996000fc18819ff30771eb0ed379.ts' for writing
[hls @ 0x555db81bcac0] Opening '/data/transcodes/6987704996000fc18819ff30771eb0ed380.ts' for writing
frame=54937 fps=4562 q=-1.0 size=N/A time=00:36:17.29 bitrate=N/A speed= 181x    
[hls @ 0x555db81bcac0] Opening '/data/transcodes/6987704996000fc18819ff30771eb0ed381.ts' for writing
[hls @ 0x555db81bcac0] Opening '/data/transcodes/6987704996000fc18819ff30771eb0ed382.ts' for writing
[hls @ 0x555db81bcac0] Opening '/data/transcodes/6987704996000fc18819ff30771eb0ed383.ts' for writing
[hls @ 0x555db81bcac0] Opening '/data/transcodes/6987704996000fc18819ff30771eb0ed384.ts' for writing
[hls @ 0x555db81bcac0] Opening '/data/transcodes/6987704996000fc18819ff30771eb0ed385.ts' for writing
[hls @ 0x555db81bcac0] Opening '/data/transcodes/6987704996000fc18819ff30771eb0ed386.ts' for writing
[hls @ 0x555db81bcac0] Opening '/data/transcodes/6987704996000fc18819ff30771eb0ed387.ts' for writing
[hls @ 0x555db81bcac0] Opening '/data/transcodes/6987704996000fc18819ff30771eb0ed388.ts' for writing
[hls @ 0x555db81bcac0] Opening '/data/transcodes/6987704996000fc18819ff30771eb0ed389.ts' for writing
[hls @ 0x555db81bcac0] Opening '/data/transcodes/6987704996000fc18819ff30771eb0ed390.ts' for writing
[hls @ 0x555db81bcac0] Opening '/data/transcodes/6987704996000fc18819ff30771eb0ed391.ts' for writing
[hls @ 0x555db81bcac0] Opening '/data/transcodes/6987704996000fc18819ff30771eb0ed392.ts' for writing
[hls @ 0x555db81bcac0] Opening '/data/transcodes/6987704996000fc18819ff30771eb0ed393.ts' for writing
[hls @ 0x555db81bcac0] Opening '/data/transcodes/6987704996000fc18819ff30771eb0ed394.ts' for writing
[hls @ 0x555db81bcac0] Opening '/data/transcodes/6987704996000fc18819ff30771eb0ed395.ts' for writing
[hls @ 0x555db81bcac0] Opening '/data/transcodes/6987704996000fc18819ff30771eb0ed396.ts' for writing
[hls @ 0x555db81bcac0] Opening '/data/transcodes/6987704996000fc18819ff30771eb0ed397.ts' for writing
frame=57274 fps=4566 q=-1.0 size=N/A time=00:37:54.66 bitrate=N/A speed= 181x    
[hls @ 0x555db81bcac0] Opening '/data/transcodes/6987704996000fc18819ff30771eb0ed398.ts' for writing
[hls @ 0x555db81bcac0] Opening '/data/transcodes/6987704996000fc18819ff30771eb0ed399.ts' for writing
[hls @ 0x555db81bcac0] Opening '/data/transcodes/6987704996000fc18819ff30771eb0ed400.ts' for writing
[hls @ 0x555db81bcac0] Opening '/data/transcodes/6987704996000fc18819ff30771eb0ed401.ts' for writing
[hls @ 0x555db81bcac0] Opening '/data/transcodes/6987704996000fc18819ff30771eb0ed402.ts' for writing
[hls @ 0x555db81bcac0] Opening '/data/transcodes/6987704996000fc18819ff30771eb0ed403.ts' for writing
[hls @ 0x555db81bcac0] Opening '/data/transcodes/6987704996000fc18819ff30771eb0ed404.ts' for writing
[hls @ 0x555db81bcac0] Opening '/data/transcodes/6987704996000fc18819ff30771eb0ed405.ts' for writing
[hls @ 0x555db81bcac0] Opening '/data/transcodes/6987704996000fc18819ff30771eb0ed406.ts' for writing
[hls @ 0x555db81bcac0] Opening '/data/transcodes/6987704996000fc18819ff30771eb0ed407.ts' for writing
[hls @ 0x555db81bcac0] Opening '/data/transcodes/6987704996000fc18819ff30771eb0ed408.ts' for writing
[hls @ 0x555db81bcac0] Opening '/data/transcodes/6987704996000fc18819ff30771eb0ed409.ts' for writing
[hls @ 0x555db81bcac0] Opening '/data/transcodes/6987704996000fc18819ff30771eb0ed410.ts' for writing
[hls @ 0x555db81bcac0] Opening '/data/transcodes/6987704996000fc18819ff30771eb0ed411.ts' for writing
[hls @ 0x555db81bcac0] Opening '/data/transcodes/6987704996000fc18819ff30771eb0ed412.ts' for writing
frame=59556 fps=4566 q=-1.0 size=N/A time=00:39:29.88 bitrate=N/A speed= 182x    
[hls @ 0x555db81bcac0] Opening '/data/transcodes/6987704996000fc18819ff30771eb0ed413.ts' for writing
[hls @ 0x555db81bcac0] Opening '/data/transcodes/6987704996000fc18819ff30771eb0ed414.ts' for writing
[hls @ 0x555db81bcac0] Opening '/data/transcodes/6987704996000fc18819ff30771eb0ed415.ts' for writing
[hls @ 0x555db81bcac0] Opening '/data/transcodes/6987704996000fc18819ff30771eb0ed416.ts' for writing
[hls @ 0x555db81bcac0] Opening '/data/transcodes/6987704996000fc18819ff30771eb0ed417.ts' for writing
[hls @ 0x555db81bcac0] Opening '/data/transcodes/6987704996000fc18819ff30771eb0ed418.ts' for writing
[hls @ 0x555db81bcac0] Opening '/data/transcodes/6987704996000fc18819ff30771eb0ed419.ts' for writing
[hls @ 0x555db81bcac0] Opening '/data/transcodes/6987704996000fc18819ff30771eb0ed420.ts' for writing
[hls @ 0x555db81bcac0] Opening '/data/transcodes/6987704996000fc18819ff30771eb0ed421.ts' for writing
[hls @ 0x555db81bcac0] Opening '/data/transcodes/6987704996000fc18819ff30771eb0ed422.ts' for writing
[hls @ 0x555db81bcac0] Opening '/data/transcodes/6987704996000fc18819ff30771eb0ed423.ts' for writing
[hls @ 0x555db81bcac0] Opening '/data/transcodes/6987704996000fc18819ff30771eb0ed424.ts' for writing
[hls @ 0x555db81bcac0] Opening '/data/transcodes/6987704996000fc18819ff30771eb0ed425.ts' for writing
[hls @ 0x555db81bcac0] Opening '/data/transcodes/6987704996000fc18819ff30771eb0ed426.ts' for writing
[hls @ 0x555db81bcac0] Opening '/data/transcodes/6987704996000fc18819ff30771eb0ed427.ts' for writing
[hls @ 0x555db81bcac0] Opening '/data/transcodes/6987704996000fc18819ff30771eb0ed428.ts' for writing
frame=61755 fps=4560 q=-1.0 size=N/A time=00:41:01.60 bitrate=N/A speed= 182x    
[hls @ 0x555db81bcac0] Opening '/data/transcodes/6987704996000fc18819ff30771eb0ed429.ts' for writing
[hls @ 0x555db81bcac0] Opening '/data/transcodes/6987704996000fc18819ff30771eb0ed430.ts' for writing
[hls @ 0x555db81bcac0] Opening '/data/transcodes/6987704996000fc18819ff30771eb0ed431.ts' for writing
[hls @ 0x555db81bcac0] Opening '/data/transcodes/6987704996000fc18819ff30771eb0ed432.ts' for writing
[hls @ 0x555db81bcac0] Opening '/data/transcodes/6987704996000fc18819ff30771eb0ed433.ts' for writing
[hls @ 0x555db81bcac0] Opening '/data/transcodes/6987704996000fc18819ff30771eb0ed434.ts' for writing
[hls @ 0x555db81bcac0] Opening '/data/transcodes/6987704996000fc18819ff30771eb0ed435.ts' for writing
[hls @ 0x555db81bcac0] Opening '/data/transcodes/6987704996000fc18819ff30771eb0ed436.ts' for writing
[hls @ 0x555db81bcac0] Opening '/data/transcodes/6987704996000fc18819ff30771eb0ed437.ts' for writing
[hls @ 0x555db81bcac0] Opening '/data/transcodes/6987704996000fc18819ff30771eb0ed438.ts' for writing
[hls @ 0x555db81bcac0] Opening '/data/transcodes/6987704996000fc18819ff30771eb0ed439.ts' for writing
[hls @ 0x555db81bcac0] Opening '/data/transcodes/6987704996000fc18819ff30771eb0ed440.ts' for writing
[hls @ 0x555db81bcac0] Opening '/data/transcodes/6987704996000fc18819ff30771eb0ed441.ts' for writing
[hls @ 0x555db81bcac0] Opening '/data/transcodes/6987704996000fc18819ff30771eb0ed442.ts' for writing
[hls @ 0x555db81bcac0] Opening '/data/transcodes/6987704996000fc18819ff30771eb0ed443.ts' for writing
[hls @ 0x555db81bcac0] Opening '/data/transcodes/6987704996000fc18819ff30771eb0ed444.ts' for writing
frame=64036 fps=4560 q=-1.0 size=N/A time=00:42:36.76 bitrate=N/A speed= 182x    
[hls @ 0x555db81bcac0] Opening '/data/transcodes/6987704996000fc18819ff30771eb0ed445.ts' for writing
[hls @ 0x555db81bcac0] Opening '/data/transcodes/6987704996000fc18819ff30771eb0ed446.ts' for writing
[hls @ 0x555db81bcac0] Opening '/data/transcodes/6987704996000fc18819ff30771eb0ed447.ts' for writing
[hls @ 0x555db81bcac0] Opening '/data/transcodes/6987704996000fc18819ff30771eb0ed448.ts' for writing
[hls @ 0x555db81bcac0] Opening '/data/transcodes/6987704996000fc18819ff30771eb0ed449.ts' for writing


[q] command received. Exiting.

[hls @ 0x555db81bcac0] Opening '/data/transcodes/6987704996000fc18819ff30771eb0ed450.ts' for writing
frame=64753 fps=4456 q=-1.0 Lsize=N/A time=00:43:06.62 bitrate=N/A speed= 178x    
video:2755117kB audio:42200kB subtitle:0kB other streams:0kB global headers:0kB muxing overhead: unknown